<svg
                                        height="48"
                                        viewBox="0 0 48 48"
                                        width="48"
                                        xmlns="http://www.w3.org/2000/svg"
                                        style="
                                          max-width: 36px;
                                          max-height: 28px;
                                          height: auto;
                                          width: 100%;
                                          pointer-events: none;
                                          margin: 0 auto;
                                          display: inline-block;
                                        "
                                      >
                                        <defs>
                                          <style>
                                            .cls-10 {
                                              fill: #fa5c66;
                                            }

                                            .cls-20 {
                                              fill: #f1f2f2;
                                            }

                                            .cls-30 {
                                              fill: #e93d5b;
                                            }
                                          </style>
                                        </defs>
                                        <title></title>
                                        <g data-name="21-Gmail" id="_21-Gmail">
                                          <g data-name="<Group>" id="_Group_">
                                            <path
                                              class="cls-10"
                                              d="M6,37v3H4a3,3,0,0,1-3-3V11A3,3,0,0,1,4,8H7L24,23,41,8h3a3,3,0,0,1,3,3V37a3,3,0,0,1-3,3H42V13L24,29,6,13Z"
                                            ></path>
                                            <polygon
                                              class="cls-20"
                                              points="42 36 42 40 6 40 6 39.97 6 37 6 13 24 29 42 13 42 36"
                                            ></polygon>
                                            <polygon
                                              class="cls-20"
                                              points="41 8 24 23 7 8 41 8"
                                            ></polygon>
                                            <path
                                              class="cls-30"
                                              d="M42,37a1,1,0,0,1-1-1V15.227L24.665,29.747a1,1,0,0,1-1.33,0L7,15.227V36a1,1,0,0,1-2,0V13a1,1,0,0,1,1.665-.748L24,27.662l17.335-15.41A1,1,0,0,1,43,13V36A1,1,0,0,1,42,37Z"
                                            ></path>
                                          </g>
                                        </g>
                                      </svg>